<svg xmlns="http://www.w3.org/2000/svg" width="24" height="24" viewBox="0 0 24 24" fill="none">
  <path fill-rule="evenodd" clip-rule="evenodd" d="M11.5174 7.21655L9.66948 7.2166C9.56257 7.2166 9.33901 7.21651 9.21883 7.34535C9.09866 7.4742 9.02279 7.47421 8.85755 7.47421V7.47421C8.63428 7.47421 8.63097 7.88307 8.4096 7.91225C8.39936 7.9136 8.38891 7.91429 8.37829 7.91429C8.24811 7.91429 8.14257 8.01912 8.14257 8.14843V8.15611C8.14257 8.28969 8.03355 8.39797 7.89907 8.39797H7.42346C7.28611 8.39797 7.17476 8.50857 7.17476 8.645V8.66008C7.17476 8.79651 7.06341 8.90711 6.92605 8.90711H6.45569C6.31833 8.90711 6.20698 9.01771 6.20698 9.15414V9.16979C6.20698 9.3059 6.09589 9.41624 5.95886 9.41624H5.95415C5.81969 9.41624 5.71069 9.52451 5.71069 9.65807V9.66579C5.71069 9.7951 5.60515 9.89993 5.47497 9.89993C5.34476 9.89993 5.23921 10.0048 5.23921 10.1341V10.2506C5.23921 10.3381 5.16778 10.4091 5.07966 10.4091H5.01101C4.99862 10.4091 4.9871 10.4154 4.98054 10.4259C4.97699 10.4315 4.97511 10.4381 4.97511 10.4447V12.1731C4.97511 12.3095 4.83775 12.4201 4.97511 12.4201H6.92605C7.06341 12.4201 7.17476 12.5307 7.17476 12.6672V13.6751C7.17476 13.8115 7.28611 13.9221 7.42346 13.9221H7.89387C8.03122 13.9221 8.14257 13.8115 8.14257 13.6751V12.6672C8.14257 12.5307 8.25392 12.4201 8.39128 12.4201H11.2687C11.406 12.4201 11.5174 12.5307 11.5174 12.6672V13.6751C11.5174 13.8115 11.6287 13.9221 11.7661 13.9221H12.2364C12.3738 13.9221 12.4852 13.8115 12.4852 13.6751V12.6672C12.4852 12.5307 12.5965 12.4201 12.7339 12.4201H15.6113C15.7486 12.4201 15.86 12.5307 15.86 12.6672V13.6751C15.86 13.8115 15.9713 13.9221 16.1087 13.9221H16.5791C16.7164 13.9221 16.8278 13.8115 16.8278 13.6751V12.6672C16.8278 12.5307 16.9391 12.4201 17.0765 12.4201H19.0115C19.1488 12.4201 19.0115 12.3095 19.0115 12.1731V10.5323C19.0115 10.4642 18.9559 10.4091 18.8874 10.4091C18.8189 10.4091 18.7633 10.3539 18.7633 10.2858V10.1341C18.7633 10.0048 18.6578 9.89993 18.5276 9.89993C18.3974 9.89993 18.2918 9.7951 18.2918 9.66579V9.65807C18.2918 9.52451 18.1828 9.41624 18.0484 9.41624H18.0437C17.9066 9.41624 17.7955 9.3059 17.7955 9.16979V9.15414C17.7955 9.01771 17.6842 8.90711 17.5468 8.90711H17.0765C16.9391 8.90711 16.8278 8.79651 16.8278 8.66008V8.645C16.8278 8.50857 16.7164 8.39797 16.5791 8.39797H16.1035C15.969 8.39797 15.86 8.28969 15.86 8.15611V8.14843C15.86 8.01912 15.7544 7.91429 15.6242 7.91429C15.494 7.91429 15.3885 7.80945 15.3885 7.68012V7.65158C15.3885 7.51546 15.2774 7.40512 15.1403 7.40512H14.9844C14.9249 7.40512 14.8674 7.38391 14.8222 7.34535L14.7415 7.27636C14.6964 7.2378 14.6388 7.2166 14.5793 7.2166H12.4852L11.5174 7.21655ZM11.2687 11.4019C11.406 11.4019 11.5174 11.2913 11.5174 11.1548V8.645C11.5174 8.50857 11.406 8.39797 11.2687 8.39797H10.3268C10.1895 8.39797 10.0781 8.50857 10.0781 8.645V8.66008C10.0781 8.79651 9.96677 8.90711 9.82942 8.90711H9.43802C9.30067 8.90711 9.18932 9.01771 9.18932 9.15414V9.6529C9.18932 9.78933 9.07797 9.89993 8.94061 9.89993H8.86276C8.7254 9.89993 8.61405 10.0105 8.61405 10.147V10.9182V11.16C8.61405 11.2936 8.72307 11.4019 8.85755 11.4019H11.2687ZM14.1731 8.90711C14.0358 8.90711 13.9244 8.79651 13.9244 8.66008V8.645C13.9244 8.50857 13.8131 8.39797 13.6757 8.39797H12.7339C12.5965 8.39797 12.4852 8.50857 12.4852 8.645V11.1548C12.4852 11.2913 12.5965 11.4019 12.7339 11.4019H15.1398C15.2771 11.4019 15.3885 11.2913 15.3885 11.1548V10.1464C15.3885 10.0103 15.2774 9.89993 15.1403 9.89993C15.0033 9.89993 14.8922 9.78957 14.8922 9.65343V9.15414C14.8922 9.01771 14.7808 8.90711 14.6435 8.90711H14.1731ZM7.64624 10.147C7.64624 10.0105 7.53489 9.89993 7.39754 9.89993H6.92717C6.78981 9.89993 6.67847 10.0105 6.67847 10.147V10.1749C6.67847 10.3042 6.57293 10.4091 6.44274 10.4091C6.31254 10.4091 6.20698 10.5139 6.20698 10.6432V10.6717C6.20698 10.8079 6.09589 10.9182 5.95886 10.9182H5.95415C5.81969 10.9182 5.71069 11.0265 5.71069 11.16C5.71069 11.2936 5.81971 11.4019 5.95419 11.4019H7.49257C7.57744 11.4019 7.64624 11.3335 7.64624 11.2492V10.147ZM17.5598 10.4091C17.4296 10.4091 17.3241 10.3042 17.3241 10.1749V10.147C17.3241 10.0105 17.2127 9.89993 17.0754 9.89993H16.605C16.4676 9.89993 16.3563 10.0105 16.3563 10.147V11.1548C16.3563 11.2913 16.4676 11.4019 16.605 11.4019H18.0483C18.1828 11.4019 18.2918 11.2936 18.2918 11.16C18.2918 11.0265 18.1828 10.9182 18.0484 10.9182H18.0437C17.9066 10.9182 17.7955 10.8079 17.7955 10.6717V10.6432C17.7955 10.5139 17.69 10.4091 17.5598 10.4091Z" fill="white"/>
  <path d="M12.2364 13.9221H11.7661C11.6287 13.9221 11.5174 13.8115 11.5174 13.6751V14.6362C11.5174 14.4997 11.6287 14.3891 11.7661 14.3891H12.2364C12.3738 14.3891 12.4852 14.4997 12.4852 14.6362V13.6751C12.4852 13.8115 12.3738 13.9221 12.2364 13.9221Z" fill="white"/>
  <path d="M7.89387 13.9221H7.42346C7.28611 13.9221 7.17476 13.8115 7.17476 13.6751V14.6362C7.17476 14.4997 7.28611 14.3891 7.42346 14.3891H7.89387C8.03122 14.3891 8.14257 14.4997 8.14257 14.6362V13.6751C8.14257 13.8115 8.03122 13.9221 7.89387 13.9221Z" fill="white"/>
  <path d="M16.5791 13.9221H16.1087C15.9713 13.9221 15.86 13.8115 15.86 13.6751V14.6362C15.86 14.4997 15.9713 14.3891 16.1087 14.3891H16.5791C16.7164 14.3891 16.8278 14.4997 16.8278 14.6362V13.6751C16.8278 13.8115 16.7164 13.9221 16.5791 13.9221Z" fill="white"/>
  <path fill-rule="evenodd" clip-rule="evenodd" d="M11.5174 20.8398L9.66948 20.8397C9.56257 20.8397 9.33901 20.8398 9.21883 20.711C9.09866 20.5821 9.02279 20.5821 8.85755 20.5821C8.72658 20.5821 8.65025 20.4528 8.62423 20.3991C8.61699 20.3842 8.6145 20.3675 8.61268 20.3508C8.59991 20.2334 8.49985 20.142 8.37829 20.142C8.24811 20.142 8.14257 20.0372 8.14257 19.9079V19.9002C8.14257 19.7666 8.03355 19.6584 7.89907 19.6584H7.42346C7.28611 19.6584 7.17476 19.5478 7.17476 19.4113V19.3962C7.17476 19.2598 7.06341 19.1492 6.92605 19.1492H6.45569C6.31833 19.1492 6.20698 19.0386 6.20698 18.9022V18.8865C6.20698 18.7504 6.09589 18.6401 5.95886 18.6401H5.95415C5.81969 18.6401 5.71069 18.5318 5.71069 18.3983V18.3905C5.71069 18.2612 5.60515 18.1564 5.47497 18.1564C5.34476 18.1564 5.23921 18.0516 5.23921 17.9222V17.8057C5.23921 17.7182 5.16778 17.6473 5.07966 17.6473H5.01101C4.99862 17.6473 4.9871 17.6409 4.98054 17.6305C4.97699 17.6248 4.97511 17.6183 4.97511 17.6116V15.8832C4.97511 15.7468 4.87366 15.6362 5.01101 15.6362H6.92605C7.06341 15.6362 7.17476 15.5256 7.17476 15.3892V14.3813C7.17476 14.2448 7.28611 14.1342 7.42346 14.1342H7.89387C8.03122 14.1342 8.14257 14.2448 8.14257 14.3813V15.3892C8.14257 15.5256 8.25392 15.6362 8.39128 15.6362H11.2687C11.406 15.6362 11.5174 15.5256 11.5174 15.3892V14.3813C11.5174 14.2448 11.6287 14.1342 11.7661 14.1342H12.2364C12.3738 14.1342 12.4852 14.2448 12.4852 14.3813V15.3892C12.4852 15.5256 12.5965 15.6362 12.7339 15.6362H15.6113C15.7486 15.6362 15.86 15.5256 15.86 15.3892V14.3813C15.86 14.2448 15.9713 14.1342 16.1087 14.1342H16.5791C16.7164 14.1342 16.8278 14.2448 16.8278 14.3813V15.3892C16.8278 15.5256 16.9391 15.6362 17.0765 15.6362H19.0115C19.1488 15.6362 19.0115 15.7468 19.0115 15.8832V17.524C19.0115 17.5921 18.9559 17.6473 18.8874 17.6473C18.8189 17.6473 18.7633 17.7024 18.7633 17.7705V17.9222C18.7633 18.0516 18.6578 18.1564 18.5276 18.1564C18.3974 18.1564 18.2918 18.2612 18.2918 18.3905V18.3983C18.2918 18.5318 18.1828 18.6401 18.0484 18.6401H18.0437C17.9066 18.6401 17.7955 18.7504 17.7955 18.8865V18.9022C17.7955 19.0386 17.6842 19.1492 17.5468 19.1492H17.0765C16.9391 19.1492 16.8278 19.2598 16.8278 19.3962V19.4113C16.8278 19.5478 16.7164 19.6584 16.5791 19.6584H16.1035C15.969 19.6584 15.86 19.7666 15.86 19.9002V19.9079C15.86 20.0372 15.7544 20.142 15.6242 20.142C15.494 20.142 15.3885 20.2469 15.3885 20.3762V20.4048C15.3885 20.5409 15.2774 20.6512 15.1403 20.6512H14.9844C14.9249 20.6512 14.8674 20.6724 14.8222 20.711L14.7415 20.78C14.6964 20.8185 14.6388 20.8397 14.5793 20.8397L12.4851 20.8398L11.5174 20.8398ZM11.2687 16.6544C11.406 16.6544 11.5174 16.765 11.5174 16.9015V19.4113C11.5174 19.5478 11.406 19.6584 11.2687 19.6584H10.3268C10.1895 19.6584 10.0781 19.5478 10.0781 19.4113V19.3962C10.0781 19.2598 9.96677 19.1492 9.82942 19.1492H9.43802C9.30067 19.1492 9.18932 19.0386 9.18932 18.9022V18.4034C9.18932 18.267 9.07797 18.1564 8.94061 18.1564H8.86276C8.7254 18.1564 8.61405 18.0458 8.61405 17.9094V17.1381V16.8963C8.61405 16.7627 8.72307 16.6544 8.85755 16.6544H11.2687ZM14.1731 19.1492C14.0358 19.1492 13.9244 19.2598 13.9244 19.3962V19.4113C13.9244 19.5478 13.8131 19.6584 13.6757 19.6584H12.7339C12.5965 19.6584 12.4852 19.5478 12.4852 19.4113V16.9015C12.4852 16.765 12.5965 16.6544 12.7339 16.6544H15.1398C15.2771 16.6544 15.3885 16.765 15.3885 16.9015V17.9099C15.3885 18.0461 15.2774 18.1564 15.1403 18.1564C15.0033 18.1564 14.8922 18.2668 14.8922 18.4029V18.9022C14.8922 19.0386 14.7808 19.1492 14.6435 19.1492H14.1731ZM7.64624 17.9094C7.64624 18.0458 7.53489 18.1564 7.39754 18.1564H6.92717C6.78981 18.1564 6.67847 18.0458 6.67847 17.9094V17.8814C6.67847 17.7521 6.57293 17.6473 6.44274 17.6473C6.31254 17.6473 6.20698 17.5424 6.20698 17.4131V17.3846C6.20698 17.2485 6.09589 17.1381 5.95886 17.1381H5.95415C5.81969 17.1381 5.71069 17.0299 5.71069 16.8963C5.71069 16.7627 5.81971 16.6544 5.95419 16.6544H7.49257C7.57744 16.6544 7.64624 16.7228 7.64624 16.8071V17.9094ZM17.5598 17.6473C17.4296 17.6473 17.3241 17.7521 17.3241 17.8814V17.9094C17.3241 18.0458 17.2127 18.1564 17.0754 18.1564H16.605C16.4676 18.1564 16.3563 18.0458 16.3563 17.9094V16.9015C16.3563 16.765 16.4676 16.6544 16.605 16.6544H18.0483C18.1828 16.6544 18.2918 16.7627 18.2918 16.8963C18.2918 17.0299 18.1828 17.1381 18.0484 17.1381H18.0437C17.9066 17.1381 17.7955 17.2485 17.7955 17.3846V17.4131C17.7955 17.5424 17.69 17.6473 17.5598 17.6473Z" fill="white"/>
  <path fill-rule="evenodd" clip-rule="evenodd" d="M7.54549 3.05396C7.29766 3.05396 7.09675 3.25312 7.09675 3.4988C7.09675 3.74448 6.89585 3.94364 6.64801 3.94364H5.24132C4.99349 3.94364 4.79258 4.14281 4.79258 4.38849C4.79258 4.63417 4.59167 4.83333 4.34384 4.83333H4.10193C3.8895 4.83333 3.71729 5.00405 3.71729 5.21463V6.35851C3.71729 6.63929 3.48768 6.86691 3.20445 6.86691H2.77954C2.58481 6.86691 2.42695 7.02339 2.42695 7.21643C2.42695 7.40946 2.2691 7.56595 2.07437 7.56595H2.02757C1.80699 7.56595 1.62818 7.74322 1.62818 7.96188L1.62827 10.7179C1.62828 10.9533 1.43571 11.1442 1.19817 11.1442C0.960625 11.1442 0.76806 11.3351 0.76806 11.5706V12.0981C0.76806 12.3083 0.596124 12.4788 0.38403 12.4788C0.171936 12.4788 0 12.6492 0 12.8595V15.5906C0 15.7673 0.144426 15.9104 0.322585 15.9104C0.500743 15.9104 0.64517 16.0536 0.64517 16.2302V16.4373C0.64517 16.6728 0.837738 16.8637 1.07528 16.8637C1.31283 16.8637 1.5054 17.0546 1.5054 17.29V17.3085C1.5054 17.5542 1.7063 17.7534 1.95414 17.7534H3.3889C3.67213 17.7534 3.90174 17.981 3.90174 18.2617V18.5159C3.90174 18.7967 4.13135 19.0243 4.41459 19.0243H4.4949C4.77814 19.0243 5.00775 18.7967 5.00775 18.5159V9.9368C5.00775 9.65602 4.77814 9.42841 4.4949 9.42841H4.16615C3.91831 9.42841 3.71741 9.62757 3.71741 9.87325V9.89171C3.71741 10.1272 3.52483 10.3181 3.28729 10.3181C3.04974 10.3181 2.85717 10.1272 2.85716 9.89173L2.85709 8.51921C2.85708 8.23842 3.08669 8.0108 3.36993 8.0108H3.89098C4.17422 8.0108 4.40383 7.78318 4.40383 7.5024V6.99605C4.40383 6.81943 4.54826 6.67626 4.72641 6.67626C4.90457 6.67626 5.049 6.53309 5.049 6.35648V5.72302C5.049 5.44224 5.27861 5.21463 5.56185 5.21463H6.68007C6.9102 5.21463 7.09675 5.02969 7.09675 4.80156C7.09675 4.57343 7.28331 4.38849 7.51344 4.38849H11.4995C11.7441 4.38849 11.9488 4.21865 12 3.99142C12.0081 3.95559 12.0123 3.91834 12.0123 3.88009V3.56235C12.0123 3.52411 12.0081 3.48685 12 3.45103C11.9488 3.22379 11.7441 3.05396 11.4995 3.05396H7.54549ZM3.87247 16.8637C4.11002 16.8637 4.30258 16.6728 4.30258 16.4373V11.0171C4.30258 10.8767 4.18778 10.7629 4.04616 10.7629H3.87247C3.63493 10.7629 3.44236 10.9538 3.44236 11.1893V16.4373C3.44236 16.6728 3.63493 16.8637 3.87247 16.8637ZM2.20463 14.2581C2.45066 14.2581 2.65011 14.0604 2.65011 13.8165V13.3652C2.65011 13.1213 2.45066 12.9236 2.20463 12.9236C1.9586 12.9236 1.75916 13.1213 1.75916 13.3652V13.8165C1.75916 14.0604 1.9586 14.2581 2.20463 14.2581Z" fill="white"/>
  <path fill-rule="evenodd" clip-rule="evenodd" d="M16.4545 3.05396C16.7023 3.05396 16.9032 3.25312 16.9032 3.4988C16.9032 3.74448 17.1042 3.94364 17.352 3.94364H18.7587C19.0065 3.94364 19.2074 4.14281 19.2074 4.38849C19.2074 4.63417 19.4083 4.83333 19.6562 4.83333H19.8981C20.1105 4.83333 20.2827 5.00405 20.2827 5.21463V6.35851C20.2827 6.63929 20.5123 6.86691 20.7956 6.86691H21.2205C21.4152 6.86691 21.573 7.02339 21.573 7.21643C21.573 7.40946 21.7309 7.56595 21.9256 7.56595H21.9724C22.193 7.56595 22.3718 7.74322 22.3718 7.96188L22.3717 10.7179C22.3717 10.9533 22.5643 11.1442 22.8018 11.1442C23.0394 11.1442 23.2319 11.3351 23.2319 11.5706V12.0981C23.2319 12.3083 23.4039 12.4788 23.616 12.4788C23.8281 12.4788 24 12.6492 24 12.8595V15.5906C24 15.7673 23.8556 15.9104 23.6774 15.9104C23.4993 15.9104 23.3548 16.0536 23.3548 16.2302V16.4373C23.3548 16.6728 23.1623 16.8637 22.9247 16.8637C22.6872 16.8637 22.4946 17.0546 22.4946 17.29V17.3085C22.4946 17.5542 22.2937 17.7534 22.0459 17.7534H20.6111C20.3279 17.7534 20.0983 17.981 20.0983 18.2617V18.5159C20.0983 18.7967 19.8687 19.0243 19.5854 19.0243H19.5051C19.2219 19.0243 18.9923 18.7967 18.9923 18.5159V9.9368C18.9923 9.65602 19.2219 9.42841 19.5051 9.42841H19.8339C20.0817 9.42841 20.2826 9.62757 20.2826 9.87325V9.89171C20.2826 10.1272 20.4752 10.3181 20.7127 10.3181C20.9503 10.3181 21.1428 10.1272 21.1428 9.89173L21.1429 8.51921C21.1429 8.23842 20.9133 8.0108 20.6301 8.0108H20.109C19.8258 8.0108 19.5962 7.78318 19.5962 7.5024V6.99605C19.5962 6.81943 19.4517 6.67626 19.2736 6.67626C19.0954 6.67626 18.951 6.53309 18.951 6.35648V5.72302C18.951 5.44224 18.7214 5.21463 18.4382 5.21463H17.3199C17.0898 5.21463 16.9032 5.02969 16.9032 4.80156C16.9032 4.57343 16.7167 4.38849 16.4866 4.38849H12.5005C12.2559 4.38849 12.0512 4.21865 12 3.99142C11.9919 3.95559 11.9877 3.91834 11.9877 3.88009V3.56235C11.9877 3.52411 11.9919 3.48685 12 3.45103C12.0512 3.22379 12.2559 3.05396 12.5005 3.05396H16.4545ZM20.1275 16.8637C19.89 16.8637 19.6974 16.6728 19.6974 16.4373V11.0171C19.6974 10.8767 19.8122 10.7629 19.9538 10.7629H20.1275C20.3651 10.7629 20.5576 10.9538 20.5576 11.1893V16.4373C20.5576 16.6728 20.3651 16.8637 20.1275 16.8637ZM21.7954 14.2581C21.5493 14.2581 21.3499 14.0604 21.3499 13.8165V13.3652C21.3499 13.1213 21.5493 12.9236 21.7954 12.9236C22.0414 12.9236 22.2408 13.1213 22.2408 13.3652V13.8165C22.2408 14.0604 22.0414 14.2581 21.7954 14.2581Z" fill="white"/>
  <path d="M12 3.99142C11.9488 4.21865 11.7441 4.38849 11.4995 4.38849H12.5005C12.2559 4.38849 12.0512 4.21865 12 3.99142Z" fill="white"/>
  <path d="M11.4995 3.05396C11.7441 3.05396 11.9488 3.22379 12 3.45103C12.0512 3.22379 12.2559 3.05396 12.5005 3.05396H11.4995Z" fill="white"/>
</svg>